<svg width="50" height="50" viewBox="0 0 50 50" fill="none" xmlns="http://www.w3.org/2000/svg">
<path fill-rule="evenodd" clip-rule="evenodd" d="M7.14286 5C5.96455 5 5 5.96455 5 7.14286V42.8571C5 44.0354 5.96455 45 7.14286 45H42.8571C44.0354 45 45 44.0354 45 42.8571V7.14286C45 5.96455 44.0354 5 42.8571 5H7.14286ZM0 7.14286C0 3.20312 3.20312 0 7.14286 0H42.8571C46.7969 0 50 3.20312 50 7.14286V42.8571C50 46.7969 46.7969 50 42.8571 50H7.14286C3.20312 50 0 46.7969 0 42.8571V7.14286Z" fill="#213E60"/>
<path d="M18.4286 15.2143C18.4286 14.3618 18.0899 13.5442 17.4871 12.9414C16.8843 12.3386 16.0668 12 15.2143 12C14.3618 12 13.5442 12.3386 12.9414 12.9414C12.3386 13.5442 12 14.3618 12 15.2143C12 16.0668 12.3386 16.8843 12.9414 17.4871C13.5442 18.0899 14.3618 18.4286 15.2143 18.4286C16.0668 18.4286 16.8843 18.0899 17.4871 17.4871C18.0899 16.8843 18.4286 16.0668 18.4286 15.2143Z" fill="#213E60"/>
<path d="M34.5 18.4286C35.3525 18.4286 36.17 18.0899 36.7728 17.4871C37.3756 16.8843 37.7143 16.0668 37.7143 15.2143C37.7143 14.3618 37.3756 13.5442 36.7728 12.9414C36.17 12.3386 35.3525 12 34.5 12C33.6475 12 32.83 12.3386 32.2272 12.9414C31.6244 13.5442 31.2857 14.3618 31.2857 15.2143C31.2857 16.0668 31.6244 16.8843 32.2272 17.4871C32.83 18.0899 33.6475 18.4286 34.5 18.4286Z" fill="#213E60"/>
<path d="M15.2143 28.0714C16.0668 28.0714 16.8843 27.7328 17.4871 27.13C18.0899 26.5272 18.4286 25.7096 18.4286 24.8571C18.4286 24.0047 18.0899 23.1871 17.4871 22.5843C16.8843 21.9815 16.0668 21.6429 15.2143 21.6429C14.3618 21.6429 13.5442 21.9815 12.9414 22.5843C12.3386 23.1871 12 24.0047 12 24.8571C12 25.7096 12.3386 26.5272 12.9414 27.13C13.5442 27.7328 14.3618 28.0714 15.2143 28.0714Z" fill="#213E60"/>
<path d="M37.7143 24.8571C37.7143 24.0047 37.3756 23.1871 36.7728 22.5843C36.17 21.9815 35.3525 21.6429 34.5 21.6429C33.6475 21.6429 32.83 21.9815 32.2272 22.5843C31.6244 23.1871 31.2857 24.0047 31.2857 24.8571C31.2857 25.7096 31.6244 26.5272 32.2272 27.13C32.83 27.7328 33.6475 28.0714 34.5 28.0714C35.3525 28.0714 36.17 27.7328 36.7728 27.13C37.3756 26.5272 37.7143 25.7096 37.7143 24.8571Z" fill="#213E60"/>
<path d="M34.5 37.7143C35.3525 37.7143 36.17 37.3756 36.7728 36.7728C37.3756 36.17 37.7143 35.3525 37.7143 34.5C37.7143 33.6475 37.3756 32.83 36.7728 32.2272C36.17 31.6244 35.3525 31.2857 34.5 31.2857C33.6475 31.2857 32.83 31.6244 32.2272 32.2272C31.6244 32.83 31.2857 33.6475 31.2857 34.5C31.2857 35.3525 31.6244 36.17 32.2272 36.7728C32.83 37.3756 33.6475 37.7143 34.5 37.7143Z" fill="#213E60"/>
<path d="M18.4286 34.5C18.4286 33.6475 18.0899 32.83 17.4871 32.2272C16.8843 31.6244 16.0668 31.2857 15.2143 31.2857C14.3618 31.2857 13.5442 31.6244 12.9414 32.2272C12.3386 32.83 12 33.6475 12 34.5C12 35.3525 12.3386 36.17 12.9414 36.7728C13.5442 37.3756 14.3618 37.7143 15.2143 37.7143C16.0668 37.7143 16.8843 37.3756 17.4871 36.7728C18.0899 36.17 18.4286 35.3525 18.4286 34.5Z" fill="#213E60"/>
<path fill-rule="evenodd" clip-rule="evenodd" d="M17.4871 12.9414C18.0899 13.5442 18.4286 14.3618 18.4286 15.2143C18.4286 16.0668 18.0899 16.8843 17.4871 17.4871C16.8843 18.0899 16.0668 18.4286 15.2143 18.4286C14.3618 18.4286 13.5442 18.0899 12.9414 17.4871C12.3386 16.8843 12 16.0668 12 15.2143C12 14.3618 12.3386 13.5442 12.9414 12.9414C13.5442 12.3386 14.3618 12 15.2143 12C16.0668 12 16.8843 12.3386 17.4871 12.9414ZM17.4871 27.13C16.8843 27.7328 16.0668 28.0714 15.2143 28.0714C14.3618 28.0714 13.5442 27.7328 12.9414 27.13C12.3386 26.5272 12 25.7096 12 24.8571C12 24.0047 12.3386 23.1871 12.9414 22.5843C13.5442 21.9815 14.3618 21.6429 15.2143 21.6429C16.0668 21.6429 16.8843 21.9815 17.4871 22.5843C18.0899 23.1871 18.4286 24.0047 18.4286 24.8571C18.4286 25.7096 18.0899 26.5272 17.4871 27.13ZM17.4871 32.2272C18.0899 32.83 18.4286 33.6475 18.4286 34.5C18.4286 35.3525 18.0899 36.17 17.4871 36.7728C16.8843 37.3756 16.0668 37.7143 15.2143 37.7143C14.3618 37.7143 13.5442 37.3756 12.9414 36.7728C12.3386 36.17 12 35.3525 12 34.5C12 33.6475 12.3386 32.83 12.9414 32.2272C13.5442 31.6244 14.3618 31.2857 15.2143 31.2857C16.0668 31.2857 16.8843 31.6244 17.4871 32.2272ZM36.7728 17.4871C36.17 18.0899 35.3525 18.4286 34.5 18.4286C33.6475 18.4286 32.83 18.0899 32.2272 17.4871C31.6244 16.8843 31.2857 16.0668 31.2857 15.2143C31.2857 14.3618 31.6244 13.5442 32.2272 12.9414C32.83 12.3386 33.6475 12 34.5 12C35.3525 12 36.17 12.3386 36.7728 12.9414C37.3756 13.5442 37.7143 14.3618 37.7143 15.2143C37.7143 16.0668 37.3756 16.8843 36.7728 17.4871ZM36.7728 22.5843C37.3756 23.1871 37.7143 24.0047 37.7143 24.8571C37.7143 25.7096 37.3756 26.5272 36.7728 27.13C36.17 27.7328 35.3525 28.0714 34.5 28.0714C33.6475 28.0714 32.83 27.7328 32.2272 27.13C31.6244 26.5272 31.2857 25.7096 31.2857 24.8571C31.2857 24.0047 31.6244 23.1871 32.2272 22.5843C32.83 21.9815 33.6475 21.6429 34.5 21.6429C35.3525 21.6429 36.17 21.9815 36.7728 22.5843ZM36.7728 36.7728C36.17 37.3756 35.3525 37.7143 34.5 37.7143C33.6475 37.7143 32.83 37.3756 32.2272 36.7728C31.6244 36.17 31.2857 35.3525 31.2857 34.5C31.2857 33.6475 31.6244 32.83 32.2272 32.2272C32.83 31.6244 33.6475 31.2857 34.5 31.2857C35.3525 31.2857 36.17 31.6244 36.7728 32.2272C37.3756 32.83 37.7143 33.6475 37.7143 34.5C37.7143 35.3525 37.3756 36.17 36.7728 36.7728Z" fill="#213E60"/>
</svg>
