<svg width="132" height="132" viewBox="0 0 132 132" fill="none" xmlns="http://www.w3.org/2000/svg">
<path d="M76.1428 10.2141C76.1428 4.60388 71.6103 0.0712891 66 0.0712891C60.3897 0.0712891 55.8571 4.60388 55.8571 10.2141V55.857H10.2143C4.604 55.857 0.0714111 60.3896 0.0714111 65.9999C0.0714111 71.6101 4.604 76.1427 10.2143 76.1427H55.8571V121.786C55.8571 127.396 60.3897 131.928 66 131.928C71.6103 131.928 76.1428 127.396 76.1428 121.786V76.1427H121.786C127.396 76.1427 131.929 71.6101 131.929 65.9999C131.929 60.3896 127.396 55.857 121.786 55.857H76.1428V10.2141Z" fill="white"/>
</svg>
