<svg width="16" height="19" viewBox="0 0 16 19" fill="none" xmlns="http://www.w3.org/2000/svg">
<path d="M6.08929 1.84286L5.41071 2.85714H10.5893L9.91072 1.84286C9.85714 1.76429 9.76786 1.71429 9.67143 1.71429H6.325C6.22857 1.71429 6.13929 1.76071 6.08571 1.84286H6.08929ZM11.3393 0.892857L12.65 2.85714H13.1429H14.8571H15.1429C15.6179 2.85714 16 3.23929 16 3.71429C16 4.18929 15.6179 4.57143 15.1429 4.57143H14.8571V15.4286C14.8571 17.0071 13.5786 18.2857 12 18.2857H4C2.42143 18.2857 1.14286 17.0071 1.14286 15.4286V4.57143H0.857143C0.382143 4.57143 0 4.18929 0 3.71429C0 3.23929 0.382143 2.85714 0.857143 2.85714H1.14286H2.85714H3.35L4.66071 0.889286C5.03214 0.335714 5.65714 0 6.325 0H9.67143C10.3393 0 10.9643 0.335714 11.3357 0.889286L11.3393 0.892857ZM2.85714 4.57143V15.4286C2.85714 16.0607 3.36786 16.5714 4 16.5714H12C12.6321 16.5714 13.1429 16.0607 13.1429 15.4286V4.57143H2.85714ZM5.71429 6.85714V14.2857C5.71429 14.6 5.45714 14.8571 5.14286 14.8571C4.82857 14.8571 4.57143 14.6 4.57143 14.2857V6.85714C4.57143 6.54286 4.82857 6.28571 5.14286 6.28571C5.45714 6.28571 5.71429 6.54286 5.71429 6.85714ZM8.57143 6.85714V14.2857C8.57143 14.6 8.31429 14.8571 8 14.8571C7.68571 14.8571 7.42857 14.6 7.42857 14.2857V6.85714C7.42857 6.54286 7.68571 6.28571 8 6.28571C8.31429 6.28571 8.57143 6.54286 8.57143 6.85714ZM11.4286 6.85714V14.2857C11.4286 14.6 11.1714 14.8571 10.8571 14.8571C10.5429 14.8571 10.2857 14.6 10.2857 14.2857V6.85714C10.2857 6.54286 10.5429 6.28571 10.8571 6.28571C11.1714 6.28571 11.4286 6.54286 11.4286 6.85714Z" fill="#E68C3A"/>
</svg>
