<svg width="110" height="110" viewBox="0 0 110 110" fill="none" xmlns="http://www.w3.org/2000/svg">
<circle cx="55" cy="55" r="55" fill="#DC443B"/>
<path d="M30.9497 79.7401C28.2161 77.0064 28.2161 72.5743 30.9497 69.8406L69.8406 30.9497C72.5743 28.2161 77.0064 28.2161 79.7401 30.9497V30.9497C82.4738 33.6834 82.4738 38.1156 79.7401 40.8492L40.8492 79.7401C38.1156 82.4738 33.6834 82.4738 30.9497 79.7401V79.7401Z" fill="white"/>
<path d="M79.9497 79.8405C77.2161 82.5742 72.7839 82.5742 70.0503 79.8405L31.1594 40.9496C28.4257 38.216 28.4257 33.7838 31.1594 31.0501V31.0501C33.8931 28.3165 38.3252 28.3165 41.0589 31.0501L79.9498 69.941C82.6834 72.6747 82.6834 77.1068 79.9497 79.8405V79.8405Z" fill="white"/>
</svg>
