<svg width="115" height="179" viewBox="0 0 115 179" fill="none" xmlns="http://www.w3.org/2000/svg">
<path d="M25.7188 51.4375C25.7188 37.4416 37.0979 26.0625 51.0938 26.0625H63.7812C77.7771 26.0625 89.1562 37.4416 89.1562 51.4375V52.8648C89.1562 61.5082 84.7553 69.5568 77.4996 74.1957L60.768 84.9404C50.7766 91.3635 44.75 102.425 44.75 114.28V114.875C44.75 121.893 50.4197 127.562 57.4375 127.562C64.4553 127.562 70.125 121.893 70.125 114.875V114.32C70.125 111.069 71.7902 108.055 74.4863 106.311L91.218 95.5662C105.729 86.2092 114.531 70.1516 114.531 52.8648V51.4375C114.531 23.4061 91.8127 0.6875 63.7812 0.6875H51.0938C23.0623 0.6875 0.34375 23.4061 0.34375 51.4375C0.34375 58.4553 6.01348 64.125 13.0312 64.125C20.049 64.125 25.7188 58.4553 25.7188 51.4375ZM57.4375 178.312C61.6437 178.312 65.6776 176.642 68.6518 173.667C71.626 170.693 73.2969 166.659 73.2969 162.453C73.2969 158.247 71.626 154.213 68.6518 151.239C65.6776 148.265 61.6437 146.594 57.4375 146.594C53.2313 146.594 49.1974 148.265 46.2232 151.239C43.249 154.213 41.5781 158.247 41.5781 162.453C41.5781 166.659 43.249 170.693 46.2232 173.667C49.1974 176.642 53.2313 178.312 57.4375 178.312Z" fill="#213E60"/>
</svg>
