<svg width="386" height="450" viewBox="0 0 386 450" fill="none" xmlns="http://www.w3.org/2000/svg">
<path d="M377.6 53.5002C388.9 39.9002 387.1 19.7002 373.5 8.40023C359.9 -2.89977 339.7 -1.09977 328.4 12.5002L193 175L57.6 12.5002C46.3 -1.09977 26.1 -2.89977 12.5 8.40023C-1.10002 19.7002 -2.90002 39.9002 8.39998 53.5002L151.3 225L8.39998 396.5C-2.90002 410.1 -1.10002 430.3 12.5 441.6C26.1 452.9 46.3 451.1 57.6 437.5L193 275L328.4 437.5C339.7 451.1 359.9 452.9 373.5 441.6C387.1 430.3 388.9 410.1 377.6 396.5L234.7 225L377.6 53.5002Z" fill="#213E60"/>
</svg>
