<svg width="20" height="19" viewBox="0 0 20 19" fill="none" xmlns="http://www.w3.org/2000/svg">
<path d="M17.8577 1.9256C16.5257 0.683958 14.7647 0 12.899 0C11.0333 0 9.27185 0.683958 7.94025 1.9256C6.55843 3.21335 5.79751 4.94354 5.79751 6.79699C5.7974 7.31011 5.85653 7.82086 5.97327 8.31522L0.526002 13.391C0.364329 13.5374 0.232985 13.7251 0.14187 13.9399C0.0507543 14.1547 0.0022455 14.3911 0 14.6312L0 17.337C0 18.2694 0.70006 19 1.59333 19H4.4923C5.38599 19 6.08562 18.2694 6.08562 17.337V16.8359H6.81122C7.70491 16.8359 8.40497 16.1058 8.40497 15.1733V14.6723H9.13056C9.51516 14.6762 9.88978 14.5282 10.1945 14.2519L11.1286 13.381C11.7107 13.5218 12.3035 13.5923 12.8977 13.5915C14.7634 13.5915 16.5244 12.908 17.8564 11.6664C19.2378 10.3786 19.9987 8.64843 19.9987 6.79448C19.9987 4.94053 19.2391 3.21335 17.8577 1.9256ZM12.899 11.8898C12.3029 11.8914 11.7089 11.8059 11.1307 11.6353L10.7839 11.5321L9.29696 12.918C9.24733 12.9551 9.18928 12.9734 9.13056 12.9706H6.95719V15.0947C6.91182 15.1209 6.86174 15.1338 6.81122 15.1323H4.63869V17.2563C4.59331 17.2824 4.54324 17.2953 4.49272 17.2939H1.59333C1.54281 17.2953 1.49274 17.2824 1.44736 17.2563V14.7079L7.69597 8.88344L7.4934 8.29218C7.32967 7.81725 7.24543 7.30955 7.2453 6.79699C7.2453 3.989 9.78126 1.70363 12.899 1.70363C16.0167 1.70363 18.5548 3.989 18.5548 6.79699C18.5548 9.60497 16.0163 11.8898 12.899 11.8898Z" fill="#213E60"/>
<path d="M15.8375 5.44674C15.8375 6.27952 15.1694 6.95696 14.348 6.95696C13.5267 6.95696 12.8585 6.27952 12.8585 5.44674C12.8585 4.61397 13.5271 3.93652 14.348 3.93652C15.1689 3.93652 15.8375 4.61397 15.8375 5.44674Z" fill="#213E60"/>
</svg>
