<svg width="30" height="26" viewBox="0 0 30 26" fill="none" xmlns="http://www.w3.org/2000/svg">
<path fill-rule="evenodd" clip-rule="evenodd" d="M0 2.77983C0 1.24235 1.24235 0 2.77983 0H5.14145C6.67893 0 7.92128 1.24235 7.92128 2.77983V5.14145C7.92128 6.67893 6.67893 7.92128 5.14145 7.92128H2.77983C1.24235 7.92128 0 6.67893 0 5.14145V2.77983ZM9.48339 3.96064C9.48339 2.20668 10.9029 0.787208 12.6568 0.787208H26.8266C28.5805 0.787208 30 2.20668 30 3.96064C30 5.7146 28.5805 7.13407 26.8266 7.13407H12.6568C10.9029 7.13407 9.48339 5.7146 9.48339 3.96064ZM9.48339 12.6322C9.48339 10.8783 10.9029 9.4588 12.6568 9.4588H26.8266C28.5805 9.4588 30 10.8783 30 12.6322C30 14.3862 28.5805 15.8057 26.8266 15.8057H12.6568C10.9029 15.8057 9.48339 14.3862 9.48339 12.6322ZM9.48339 21.3038C9.48339 19.5499 10.9029 18.1304 12.6568 18.1304H26.8266C28.5805 18.1304 30 19.5499 30 21.3038C30 23.0578 28.5805 24.4772 26.8266 24.4772H12.6568C10.9029 24.4772 9.48339 23.0578 9.48339 21.3038ZM0 13.813V11.4514C0 9.91394 1.24235 8.67159 2.77983 8.67159H5.14145C6.67893 8.67159 7.92128 9.91394 7.92128 11.4514V13.813C7.92128 15.3505 6.67893 16.5929 5.14145 16.5929H2.77983C1.24235 16.5929 0 15.3505 0 13.813ZM0 20.123C0 18.5855 1.24235 17.3432 2.77983 17.3432H5.14145C6.67893 17.3432 7.92128 18.5855 7.92128 20.123V22.4846C7.92128 24.0221 6.67893 25.2645 5.14145 25.2645H2.77983C1.24235 25.2645 0 24.0221 0 22.4846V20.123ZM1.59902 2.77983C1.59902 2.12546 2.12546 1.59902 2.77983 1.59902H5.14145C5.79582 1.59902 6.32226 2.12546 6.32226 2.77983V5.14145C6.32226 5.79582 5.79582 6.32226 5.14145 6.32226H2.77983C2.12546 6.32226 1.59902 5.79582 1.59902 5.14145V2.77983ZM11.0824 3.96064C11.0824 3.08979 11.786 2.38622 12.6568 2.38622H26.8266C27.6974 2.38622 28.401 3.08979 28.401 3.96064C28.401 4.83149 27.6974 5.53506 26.8266 5.53506H12.6568C11.786 5.53506 11.0824 4.83149 11.0824 3.96064ZM11.0824 12.6322C11.0824 11.7614 11.786 11.0578 12.6568 11.0578H26.8266C27.6974 11.0578 28.401 11.7614 28.401 12.6322C28.401 13.5031 27.6974 14.2066 26.8266 14.2066H12.6568C11.786 14.2066 11.0824 13.5031 11.0824 12.6322ZM11.0824 21.3038C11.0824 20.433 11.786 19.7294 12.6568 19.7294H26.8266C27.6974 19.7294 28.401 20.433 28.401 21.3038C28.401 22.1747 27.6974 22.8782 26.8266 22.8782H12.6568C11.786 22.8782 11.0824 22.1747 11.0824 21.3038ZM1.59902 13.813V11.4514C1.59902 10.797 2.12546 10.2706 2.77983 10.2706H5.14145C5.79582 10.2706 6.32226 10.797 6.32226 11.4514V13.813C6.32226 14.4674 5.79582 14.9939 5.14145 14.9939H2.77983C2.12546 14.9939 1.59902 14.4674 1.59902 13.813ZM1.59902 20.123C1.59902 19.4686 2.12546 18.9422 2.77983 18.9422H5.14145C5.79582 18.9422 6.32226 19.4686 6.32226 20.123V22.4846C6.32226 23.139 5.79582 23.6654 5.14145 23.6654H2.77983C2.12546 23.6654 1.59902 23.139 1.59902 22.4846V20.123Z" fill="#FAF9F8"/>
</svg>
