<svg xmlns="http://www.w3.org/2000/svg" viewBox="0 0 61.73 54.86"><defs><style>.cls-1{fill:#213e60;}</style></defs><g id="Réteg_2" data-name="Réteg 2"><g id="Kézi"><rect class="cls-1" x="16.12" y="49.28" width="29.76" height="0.13"/><path class="cls-1" d="M51.33,49.28V6.19A6.19,6.19,0,0,0,45.15,0H16.85a6.19,6.19,0,0,0-6.19,6.19V49.28H2.79A2.79,2.79,0,0,0,0,52.07H0a2.79,2.79,0,0,0,2.79,2.79H58.94a2.79,2.79,0,0,0,2.79-2.79h0a2.79,2.79,0,0,0-2.79-2.79Zm-5.45.13H16.12V7.53A2.08,2.08,0,0,1,18.2,5.45H43.8a2.08,2.08,0,0,1,2.08,2.08Z"/><rect class="cls-1" x="16.12" y="49.28" width="29.76" height="0.13"/><rect class="cls-1" x="16.12" y="49.28" width="29.76" height="0.13"/><circle class="cls-1" cx="39.6" cy="27.4" r="3.37"/></g></g></svg>