<svg width="30" height="27" viewBox="0 0 30 27" fill="none" xmlns="http://www.w3.org/2000/svg">
<path d="M13.889 0.138888L5.86825 2.38589C5.28569 2.55018 4.77273 2.90026 4.40742 3.38287C4.04211 3.86548 3.84443 4.4542 3.84445 5.05948V23.6407H1.30975C1.13736 23.6407 0.966673 23.6747 0.807471 23.7408C0.648269 23.807 0.503689 23.9039 0.382024 24.026C0.26036 24.1481 0.164005 24.2931 0.0984884 24.4525C0.0329716 24.612 -0.000418077 24.7828 0.0002349 24.9552C-0.00306197 25.1292 0.0283745 25.3022 0.0927061 25.4639C0.157038 25.6257 0.252973 25.773 0.374902 25.8972C0.496832 26.0214 0.642308 26.1201 0.802824 26.1875C0.96334 26.2548 1.13567 26.2895 1.30975 26.2895H17.0041V1.48808C17.0041 1.09342 16.8473 0.714919 16.5682 0.43585C16.2892 0.15678 15.9107 0 15.516 0L14.8811 0C14.5456 0.000680858 14.2118 0.0474131 13.889 0.138888ZM6.4486 23.6407V4.96028L14.385 2.72319V23.6407H6.4486Z" fill="#FAF9F8"/>
<path d="M11.9892 14.8561C12.6878 14.8561 13.2541 14.1255 13.2541 13.2242C13.2541 12.3229 12.6878 11.5923 11.9892 11.5923C11.2907 11.5923 10.7244 12.3229 10.7244 13.2242C10.7244 14.1255 11.2907 14.8561 11.9892 14.8561Z" fill="#FAF9F8"/>
<path d="M26.8105 23.854V4.37498C26.8105 4.09345 26.6987 3.82345 26.4996 3.62438C26.3006 3.42531 26.0306 3.31348 25.749 3.31348H18.5318V5.95234H24.1866V25.4165C24.1866 25.5563 24.2142 25.6947 24.2678 25.8238C24.3215 25.953 24.4001 26.0702 24.4992 26.1688C24.5983 26.2675 24.7159 26.3456 24.8453 26.3986C24.9746 26.4517 25.1132 26.4786 25.253 26.478H28.6855C29.0333 26.478 29.3669 26.3402 29.6133 26.0947C29.8596 25.8493 29.9987 25.5162 30 25.1685C30 24.8198 29.8615 24.4855 29.615 24.239C29.3685 23.9925 29.0341 23.854 28.6855 23.854H26.8105Z" fill="#FAF9F8"/>
</svg>
