<svg width="30" height="27" viewBox="0 0 30 27" fill="none" xmlns="http://www.w3.org/2000/svg">
<path fill-rule="evenodd" clip-rule="evenodd" d="M26.2252 12.2943C26.3835 12.4334 26.2851 12.6945 26.0743 12.6945H25.1279C24.7058 12.6945 24.3641 13.0377 24.3659 13.4598L24.4091 23.3249L24.4091 23.3279C24.4089 23.3583 24.4064 23.4095 24.397 23.4944L24.383 23.6202V24.383H23.752L23.7409 24.383L23.6023 24.3704L23.4299 24.3827L23.4058 24.383L23.3614 24.383H20.6208V20.0017C20.6208 17.8173 18.8525 16.049 16.6681 16.049H13.3345C11.15 16.049 9.38175 17.8173 9.38175 20.0017V24.383H6.67835C6.67657 24.383 6.67363 24.3828 6.6694 24.3826C6.65246 24.3818 6.63234 24.3805 6.5901 24.3777L6.41905 24.3663L6.22772 24.3822L6.2175 24.383H5.61953V18.7792L5.62473 18.7324V13.4565C5.62473 13.0357 5.28359 12.6945 4.86276 12.6945H3.87998C3.6687 12.6945 3.57051 12.4325 3.72978 12.2936L15.0242 2.44844L26.2252 12.2943ZM16.116 0.364614C15.8034 0.104176 15.3867 0 15.0221 0C14.6575 0 14.2408 0.0520878 13.8762 0.416702L0.520878 12.0583C0.156263 12.4229 0 12.8396 0 13.3084C0 14.2512 0.729229 14.9804 1.66681 14.9804H3.33883V18.6057C3.33362 18.6526 3.33362 18.7047 3.33362 18.7516V24.5854C3.33362 25.7366 4.26599 26.6689 5.41713 26.6689H6.25053C6.31304 26.6689 6.37554 26.6637 6.43805 26.6585C6.51618 26.6637 6.59431 26.6689 6.67244 26.6689H9.58415C10.7353 26.6689 11.6677 25.7366 11.6677 24.5854V20.0017C11.6677 19.0797 12.4125 18.3349 13.3345 18.3349H16.6681C17.59 18.3349 18.3349 19.0797 18.3349 20.0017V24.5854C18.3349 25.7366 19.2673 26.6689 20.4184 26.6689H23.3614C23.4343 26.6689 23.5072 26.6689 23.5801 26.6637C23.6374 26.6689 23.6947 26.6689 23.752 26.6689H24.5854C25.7366 26.6689 26.6689 25.7366 26.6689 24.5854V23.7468C26.6846 23.6062 26.695 23.4655 26.695 23.3249L26.6585 14.9804H28.3253C28.379 14.9804 28.4323 14.9777 28.4851 14.9725C29.3027 14.8906 29.9921 14.1892 29.9921 13.3084C30.0442 12.8396 29.8359 12.4229 29.4192 12.0583L16.116 0.364614Z" fill="#FAF9F8"/>
</svg>
