<svg width="48" height="48" viewBox="0 0 48 48" fill="none" xmlns="http://www.w3.org/2000/svg">
<circle cx="24" cy="24" r="24" fill="#E68C3A"/>
<path d="M24.3933 8.72705C25.4493 8.72705 26.3024 9.58018 26.3024 10.6361V12.766C26.3979 12.7779 26.4874 12.7898 26.5828 12.8077C26.6067 12.8137 26.6246 12.8137 26.6484 12.8197L29.5121 13.3447C30.5501 13.5356 31.2362 14.5319 31.0453 15.564C30.8544 16.5961 29.8581 17.2881 28.826 17.0972L25.9922 16.5782C24.1249 16.3038 22.4783 16.4887 21.3209 16.9481C20.1635 17.4074 19.6981 18.0398 19.5908 18.6245C19.4714 19.2628 19.5609 19.6208 19.6624 19.8415C19.7697 20.0742 19.9905 20.3367 20.426 20.629C21.3984 21.2674 22.8899 21.685 24.8229 22.1981L24.9959 22.2458C26.7021 22.6992 28.7902 23.2481 30.3413 24.2623C31.1885 24.8171 31.9879 25.5688 32.4831 26.6188C32.9902 27.6867 33.0976 28.8799 32.8649 30.1506C32.4533 32.4177 30.8902 33.933 28.9513 34.7265C28.1339 35.0606 27.245 35.2753 26.3024 35.3827V37.3634C26.3024 38.4194 25.4493 39.2725 24.3933 39.2725C23.3374 39.2725 22.4842 38.4194 22.4842 37.3634V35.2813C22.4604 35.2753 22.4305 35.2753 22.4067 35.2694H22.3947C20.9391 35.0427 18.5467 34.4163 16.9359 33.7003C15.9754 33.2708 15.5399 32.1432 15.9695 31.1827C16.399 30.2222 17.5266 29.7867 18.4871 30.2163C19.7339 30.7711 21.7862 31.32 22.9734 31.5049C24.8766 31.7853 26.4456 31.6242 27.5075 31.1887C28.5158 30.7771 28.9751 30.1805 29.1064 29.4646C29.2197 28.8322 29.1303 28.4682 29.0288 28.2475C28.9155 28.0089 28.6947 27.7464 28.2533 27.454C27.2749 26.8157 25.7774 26.3981 23.8385 25.885L23.6714 25.8432C21.9712 25.3898 19.8831 24.835 18.332 23.8208C17.4848 23.266 16.6913 22.5083 16.1962 21.4583C15.695 20.3904 15.5936 19.1972 15.8322 17.9265C16.2618 15.6475 17.968 14.168 19.907 13.3984C20.7004 13.0822 21.5714 12.8674 22.4842 12.7421V10.6361C22.4842 9.58018 23.3374 8.72705 24.3933 8.72705Z" fill="#FAF9F8"/>
</svg>
