<svg width="30" height="26" viewBox="0 0 30 26" fill="none" xmlns="http://www.w3.org/2000/svg">
<path d="M29.4507 14.3116C30.1831 13.5862 30.1831 12.408 29.4507 11.6826L21.9503 4.25402C21.2178 3.52857 20.0283 3.52857 19.2959 4.25402C18.5634 4.97946 18.5634 6.15759 19.2959 6.88304L23.5969 11.1429H11.2505C10.2134 11.1429 9.37546 11.9728 9.37546 13C9.37546 14.0272 10.2134 14.8571 11.2505 14.8571H23.5969L19.2959 19.117C18.5634 19.8424 18.5634 21.0205 19.2959 21.746C20.0283 22.4714 21.2178 22.4714 21.9503 21.746L29.4507 14.3174V14.3116ZM9.37546 3.71429C10.4126 3.71429 11.2505 2.88437 11.2505 1.85714C11.2505 0.829911 10.4126 0 9.37546 0H5.62527C2.51965 0 0 2.49554 0 5.57143V20.4286C0 23.5045 2.51965 26 5.62527 26H9.37546C10.4126 26 11.2505 25.1701 11.2505 24.1429C11.2505 23.1156 10.4126 22.2857 9.37546 22.2857H5.62527C4.58811 22.2857 3.75018 21.4558 3.75018 20.4286V5.57143C3.75018 4.5442 4.58811 3.71429 5.62527 3.71429H9.37546Z" fill="#FAF9F8"/>
</svg>
