<svg width="48" height="43" viewBox="0 0 48 43" fill="none" xmlns="http://www.w3.org/2000/svg">
<path d="M22.2224 0.222221L9.38919 3.81743C8.4571 4.0803 7.63638 4.64042 7.05187 5.41259C6.46737 6.18477 6.15108 7.12673 6.15112 8.09518V37.8251H2.0956C1.81978 37.8251 1.54668 37.8796 1.29195 37.9854C1.03723 38.0911 0.805902 38.2462 0.611239 38.4416C0.416576 38.637 0.262408 38.8689 0.157581 39.124C0.0527545 39.3791 -0.000668923 39.6525 0.00037584 39.9283C-0.00489916 40.2067 0.0453992 40.4835 0.14833 40.7423C0.25126 41.0011 0.404757 41.2367 0.599844 41.4355C0.794931 41.6343 1.02769 41.7922 1.28452 41.9C1.54134 42.0077 1.81708 42.0632 2.0956 42.0632H27.2065V2.38093C27.2065 1.74947 26.9557 1.14387 26.5092 0.697359C26.0626 0.250848 25.457 0 24.8256 0L23.8097 0C23.2729 0.00108937 22.7389 0.0758609 22.2224 0.222221ZM10.3178 37.8251V7.93645L23.0161 4.35711V37.8251H10.3178Z" fill="#E68C3A"/>
<path d="M19.1828 23.77C20.3005 23.77 21.2066 22.601 21.2066 21.1589C21.2066 19.7169 20.3005 18.5479 19.1828 18.5479C18.0651 18.5479 17.159 19.7169 17.159 21.1589C17.159 22.601 18.0651 23.77 19.1828 23.77Z" fill="#E68C3A"/>
<path d="M42.8969 38.1661V6.99967C42.8969 6.54923 42.7179 6.11723 42.3994 5.79872C42.0809 5.48021 41.6489 5.30127 41.1985 5.30127H29.6509V9.52346H38.6985V40.6661C38.6985 40.8898 38.7427 41.1113 38.8285 41.3179C38.9144 41.5244 39.0402 41.712 39.1987 41.8698C39.3573 42.0277 39.5455 42.1526 39.7524 42.2375C39.9594 42.3224 40.1811 42.3655 40.4048 42.3645H45.8968C46.4533 42.3645 46.987 42.144 47.3812 41.7513C47.7754 41.3586 47.9979 40.8257 48 40.2693C48 39.7115 47.7784 39.1765 47.384 38.7821C46.9896 38.3877 46.4546 38.1661 45.8968 38.1661H42.8969Z" fill="#E68C3A"/>
</svg>
