<svg width="26" height="31" viewBox="0 0 26 31" fill="none" xmlns="http://www.w3.org/2000/svg">
<path fill-rule="evenodd" clip-rule="evenodd" d="M19.0043 5.25142C19.0314 4.74763 19.4478 4.35303 19.9523 4.35303H20.8771C21.4832 4.35303 22.0822 4.47533 22.6396 4.71175C23.1969 4.94813 23.7003 5.29335 24.1223 5.72544C24.5441 6.15743 24.8765 6.66786 25.1024 7.22645C25.3283 7.78496 25.4441 8.38207 25.4441 8.98406V26.3691C25.4441 26.9711 25.3283 27.5682 25.1024 28.1267C24.8765 28.6853 24.5441 29.1957 24.1223 29.6277C23.7003 30.0598 23.1969 30.405 22.6396 30.6414C22.0822 30.8778 21.4832 31.0001 20.8771 31.0001H4.56699C3.34126 31.0001 2.17508 30.5012 1.3223 29.6282C0.471008 28.7568 0.000354168 27.5841 -5.60887e-06 26.3705L-5.72205e-06 8.98406C-5.72205e-06 7.77017 0.470484 6.5972 1.32181 5.72544C2.17463 4.85215 3.34102 4.35303 4.56699 4.35303H5.49178C5.99629 4.35303 6.41269 4.74763 6.43978 5.25142L6.48809 6.1498C6.49795 6.33316 6.5758 6.49661 6.69245 6.60979C6.80758 6.72149 6.9511 6.77644 7.09168 6.77676H18.3532C18.4936 6.77624 18.6368 6.72124 18.7518 6.60965C18.8683 6.49647 18.9461 6.33307 18.956 6.14981L19.0043 5.25142ZM18.3554 8.67549H7.09025C6.45028 8.67479 5.83486 8.42326 5.3703 7.97254C4.90573 7.52181 4.62728 6.90609 4.5921 6.25176H4.56699C4.46535 6.25176 4.36431 6.25769 4.26431 6.26938C3.70916 6.33427 3.18607 6.57638 2.77071 6.96362C2.73995 6.9923 2.70978 7.02177 2.68024 7.05203C2.17984 7.56443 1.89872 8.25941 1.89872 8.98406V26.3699C1.89894 27.0944 2.18015 27.7892 2.68052 28.3014C3.1809 28.8136 3.85946 29.1014 4.56699 29.1014H20.8771C21.2275 29.1014 21.5745 29.0307 21.8982 28.8934C22.2219 28.7561 22.5161 28.5548 22.7638 28.3011C23.0116 28.0474 23.2082 27.7462 23.3422 27.4147C23.4763 27.0832 23.5454 26.7279 23.5454 26.3691V8.98406C23.5454 8.62525 23.4763 8.26995 23.3422 7.93845C23.2082 7.60695 23.0116 7.30575 22.7638 7.05203C22.7343 7.02181 22.7042 6.99234 22.6734 6.96363C22.4456 6.75128 22.1834 6.5807 21.8982 6.45974C21.668 6.36212 21.4261 6.29818 21.1796 6.26937C21.0794 6.25766 20.9784 6.25176 20.8771 6.25176H20.852C20.8168 6.9058 20.5386 7.52129 20.0744 7.97197C19.6102 8.42265 18.9951 8.67436 18.3554 8.67549Z" fill="#FAF9F8"/>
<path d="M13.6741 23.6182C13.7842 23.5715 13.8842 23.5029 13.9683 23.4164C14.0952 23.2864 14.1816 23.1209 14.2166 22.9407C14.2516 22.7605 14.2336 22.5737 14.165 22.4039C14.0963 22.2341 13.98 22.089 13.8308 21.987C13.6816 21.8849 13.5062 21.8304 13.3267 21.8304H6.60342C6.3628 21.8304 6.13204 21.9283 5.9619 22.1025C5.79176 22.2767 5.69618 22.513 5.69618 22.7594C5.69618 23.0058 5.79176 23.2421 5.9619 23.4163C6.13204 23.5906 6.3628 23.6884 6.60342 23.6884H13.3267C13.4459 23.6888 13.564 23.6649 13.6741 23.6182Z" fill="#FAF9F8"/>
<path d="M15.5757 18.8992C15.6856 18.8525 15.7855 18.7839 15.8694 18.6975C15.9963 18.5676 16.0827 18.4021 16.1177 18.222C16.1528 18.0418 16.1349 17.8551 16.0663 17.6854C15.9977 17.5156 15.8815 17.3705 15.7325 17.2684C15.5834 17.1663 15.4081 17.1117 15.2287 17.1115H6.60423C6.36361 17.1115 6.13285 17.2094 5.96271 17.3836C5.79257 17.5578 5.69699 17.7941 5.69699 18.0405C5.69699 18.2869 5.79257 18.5232 5.96271 18.6974C6.13285 18.8717 6.36361 18.9695 6.60423 18.9695H15.2287C15.3478 18.9698 15.4657 18.9459 15.5757 18.8992Z" fill="#FAF9F8"/>
<path d="M17.8774 14.1804C17.9875 14.1337 18.0875 14.0651 18.1716 13.9786C18.2989 13.8482 18.3854 13.6821 18.4202 13.5012C18.455 13.3204 18.4365 13.133 18.367 12.963C18.2976 12.793 18.1803 12.6479 18.0301 12.5464C17.8798 12.4448 17.7035 12.3913 17.5235 12.3926H6.60423C6.36361 12.3926 6.13285 12.4905 5.96271 12.6647C5.79257 12.8389 5.69699 13.0752 5.69699 13.3216C5.69699 13.568 5.79257 13.8043 5.96271 13.9785C6.13285 14.1528 6.36361 14.2506 6.60423 14.2506H17.53C17.6492 14.251 17.7673 14.2271 17.8774 14.1804Z" fill="#FAF9F8"/>
<path d="M18.0379 2.89933C18.0379 2.9663 18.0379 3.03209 18.0296 3.09667C17.9868 3.56309 17.7956 3.99481 17.4929 4.30878C17.1901 4.62275 16.7972 4.79681 16.3897 4.79746H9.24517C8.8373 4.7974 8.44388 4.62361 8.14071 4.30958C7.83755 3.99555 7.64608 3.5635 7.60322 3.09667C7.60322 3.03209 7.59491 2.9663 7.59491 2.89933C7.59491 2.39559 7.76877 1.91249 8.07826 1.5563C8.38774 1.20011 8.80749 1 9.24517 1H16.3897C16.827 1.00063 17.2463 1.20102 17.5553 1.55714C17.8643 1.91327 18.0379 2.39601 18.0379 2.89933Z" stroke="#FAF9F8" stroke-width="1.89873"/>
</svg>
