<svg width="30" height="30" viewBox="0 0 30 30" fill="none" xmlns="http://www.w3.org/2000/svg">
<path fill-rule="evenodd" clip-rule="evenodd" d="M0 3.26905C0 1.46099 1.46099 0 3.26905 0H6.04629C7.85434 0 9.31533 1.46099 9.31533 3.26905V6.04629C9.31533 7.85435 7.85434 9.31533 6.04629 9.31533H3.26905C1.46099 9.31533 0 7.85434 0 6.04629V3.26905ZM1.88042 3.26905C1.88042 2.49952 2.49952 1.88042 3.26905 1.88042H6.04629C6.81581 1.88042 7.43491 2.49952 7.43491 3.26905V6.04629C7.43491 6.81581 6.81581 7.43491 6.04629 7.43491H3.26905C2.49952 7.43491 1.88042 6.81581 1.88042 6.04629V3.26905Z" fill="#FAF9F8"/>
<path fill-rule="evenodd" clip-rule="evenodd" d="M10.3423 3.26905C10.3423 1.46099 11.8033 0 13.6113 0H16.3886C18.1966 0 19.6576 1.46099 19.6576 3.26905V6.04629C19.6576 7.85435 18.1966 9.31533 16.3886 9.31533H13.6113C11.8033 9.31533 10.3423 7.85434 10.3423 6.04629V3.26905ZM12.2227 3.26905C12.2227 2.49952 12.8418 1.88042 13.6113 1.88042H16.3886C17.1581 1.88042 17.7772 2.49952 17.7772 3.26905V6.04629C17.7772 6.81581 17.1581 7.43491 16.3886 7.43491H13.6113C12.8418 7.43491 12.2227 6.81581 12.2227 6.04629V3.26905Z" fill="#FAF9F8"/>
<path fill-rule="evenodd" clip-rule="evenodd" d="M20.6847 3.26905C20.6847 1.46099 22.1457 0 23.9537 0H26.731C28.539 0 30 1.46099 30 3.26905V6.04629C30 7.85435 28.539 9.31533 26.731 9.31533H23.9537C22.1457 9.31533 20.6847 7.85434 20.6847 6.04629V3.26905ZM22.5651 3.26905C22.5651 2.49952 23.1842 1.88042 23.9537 1.88042H26.731C27.5005 1.88042 28.1196 2.49952 28.1196 3.26905V6.04629C28.1196 6.81581 27.5005 7.43491 26.731 7.43491H23.9537C23.1842 7.43491 22.5651 6.81581 22.5651 6.04629V3.26905Z" fill="#FAF9F8"/>
<path fill-rule="evenodd" clip-rule="evenodd" d="M0 13.6113C0 11.8033 1.46099 10.3423 3.26905 10.3423H6.04629C7.85434 10.3423 9.31533 11.8033 9.31533 13.6113V16.3886C9.31533 18.1966 7.85434 19.6576 6.04629 19.6576H3.26905C1.46099 19.6576 0 18.1966 0 16.3886V13.6113ZM1.88042 13.6113C1.88042 12.8418 2.49952 12.2227 3.26905 12.2227H6.04629C6.81581 12.2227 7.43491 12.8418 7.43491 13.6113V16.3886C7.43491 17.1581 6.81581 17.7772 6.04629 17.7772H3.26905C2.49952 17.7772 1.88042 17.1581 1.88042 16.3886V13.6113Z" fill="#FAF9F8"/>
<path fill-rule="evenodd" clip-rule="evenodd" d="M10.3423 13.6113C10.3423 11.8033 11.8033 10.3423 13.6113 10.3423H16.3886C18.1966 10.3423 19.6576 11.8033 19.6576 13.6113V16.3886C19.6576 18.1966 18.1966 19.6576 16.3886 19.6576H13.6113C11.8033 19.6576 10.3423 18.1966 10.3423 16.3886V13.6113ZM12.2227 13.6113C12.2227 12.8418 12.8418 12.2227 13.6113 12.2227H16.3886C17.1581 12.2227 17.7772 12.8418 17.7772 13.6113V16.3886C17.7772 17.1581 17.1581 17.7772 16.3886 17.7772H13.6113C12.8418 17.7772 12.2227 17.1581 12.2227 16.3886V13.6113Z" fill="#FAF9F8"/>
<path fill-rule="evenodd" clip-rule="evenodd" d="M20.6847 13.6113C20.6847 11.8033 22.1457 10.3423 23.9537 10.3423H26.731C28.539 10.3423 30 11.8033 30 13.6113V16.3886C30 18.1966 28.539 19.6576 26.731 19.6576H23.9537C22.1457 19.6576 20.6847 18.1966 20.6847 16.3886V13.6113ZM22.5651 13.6113C22.5651 12.8418 23.1842 12.2227 23.9537 12.2227H26.731C27.5005 12.2227 28.1196 12.8418 28.1196 13.6113V16.3886C28.1196 17.1581 27.5005 17.7772 26.731 17.7772H23.9537C23.1842 17.7772 22.5651 17.1581 22.5651 16.3886V13.6113Z" fill="#FAF9F8"/>
<path fill-rule="evenodd" clip-rule="evenodd" d="M0 23.9536C0 22.1456 1.46099 20.6846 3.26905 20.6846H6.04629C7.85434 20.6846 9.31533 22.1456 9.31533 23.9536V26.7309C9.31533 28.5389 7.85434 29.9999 6.04629 29.9999H3.26905C1.46099 29.9999 0 28.5389 0 26.7309V23.9536ZM1.88042 23.9536C1.88042 23.1841 2.49952 22.565 3.26905 22.565H6.04629C6.81581 22.565 7.43491 23.1841 7.43491 23.9536V26.7309C7.43491 27.5004 6.81581 28.1195 6.04629 28.1195H3.26905C2.49952 28.1195 1.88042 27.5004 1.88042 26.7309V23.9536Z" fill="#FAF9F8"/>
<path fill-rule="evenodd" clip-rule="evenodd" d="M10.3423 23.9536C10.3423 22.1456 11.8033 20.6846 13.6113 20.6846H16.3886C18.1966 20.6846 19.6576 22.1456 19.6576 23.9536V26.7309C19.6576 28.5389 18.1966 29.9999 16.3886 29.9999H13.6113C11.8033 29.9999 10.3423 28.5389 10.3423 26.7309V23.9536ZM12.2227 23.9536C12.2227 23.1841 12.8418 22.565 13.6113 22.565H16.3886C17.1581 22.565 17.7772 23.1841 17.7772 23.9536V26.7309C17.7772 27.5004 17.1581 28.1195 16.3886 28.1195H13.6113C12.8418 28.1195 12.2227 27.5004 12.2227 26.7309V23.9536Z" fill="#FAF9F8"/>
<path fill-rule="evenodd" clip-rule="evenodd" d="M20.6847 23.9536C20.6847 22.1456 22.1457 20.6846 23.9537 20.6846H26.731C28.539 20.6846 30 22.1456 30 23.9536V26.7309C30 28.5389 28.539 29.9999 26.731 29.9999H23.9537C22.1457 29.9999 20.6847 28.5389 20.6847 26.7309V23.9536ZM22.5651 23.9536C22.5651 23.1841 23.1842 22.565 23.9537 22.565H26.731C27.5005 22.565 28.1196 23.1841 28.1196 23.9536V26.7309C28.1196 27.5004 27.5005 28.1195 26.731 28.1195H23.9537C23.1842 28.1195 22.5651 27.5004 22.5651 26.7309V23.9536Z" fill="#FAF9F8"/>
</svg>
