<svg width="28" height="28" viewBox="0 0 28 28" fill="none" xmlns="http://www.w3.org/2000/svg">
<path d="M11 3C11 1.89603 11.896 1 13 1H15C16.104 1 17 1.89603 17 3V25C17 26.104 16.104 27 15 27H13C11.896 27 11 26.104 11 25V3ZM1 15C1 13.896 1.89603 13 3 13H5C6.10397 13 7 13.896 7 15V25C7 26.104 6.10397 27 5 27H3C1.89603 27 1 26.104 1 25V15ZM23 5H25C26.104 5 27 5.89603 27 7V25C27 26.104 26.104 27 25 27H23C21.896 27 21 26.104 21 25V7C21 5.89603 21.896 5 23 5Z" stroke="#FAF9F8" stroke-width="2"/>
</svg>
