<svg width="26" height="30" viewBox="0 0 26 30" fill="none" xmlns="http://www.w3.org/2000/svg">
<path d="M17.3647 11.9237C16.205 13.0945 14.6348 13.75 13 13.75C11.3652 13.75 9.79496 13.0945 8.63531 11.9237C7.47526 10.7525 6.82143 9.16144 6.82143 7.5C6.82143 5.83856 7.47526 4.24755 8.63531 3.07634C9.79496 1.90555 11.3652 1.25 13 1.25C14.6348 1.25 16.205 1.90555 17.3647 3.07634C18.5247 4.24755 19.1786 5.83856 19.1786 7.5C19.1786 9.16144 18.5247 10.7525 17.3647 11.9237ZM1.25 28.2598C1.25 23.1673 5.33286 19.0625 10.3478 19.0625H15.6522C20.6671 19.0625 24.75 23.1673 24.75 28.2598C24.75 28.5417 24.5265 28.75 24.2763 28.75H1.72366C1.47348 28.75 1.25 28.5417 1.25 28.2598Z" stroke="#FAF9F8" stroke-width="2.5"/>
</svg>
